<?xml version="1.0" encoding="UTF-8"?>
<svg viewBox="0 0 188 74" version="1.1" xmlns="http://www.w3.org/2000/svg" xmlns:xlink="http://www.w3.org/1999/xlink">
    <title>Nslogo</title>
    <desc>Created with Sketch.</desc>
    <g id="Page-1" stroke="none" stroke-width="1" fill="none" fill-rule="evenodd">
        <g id="Nederlandse_Spoorwegen" transform="translate(-3.000000, -60.000000)" fill="#003082">
            <path d="M97.258,66.701 C93.129,62.569 88.167,60.506 82.802,60.506 L39.851,60.506 L3.094,96.845 L39.851,133.604 L60.502,133.604 L31.182,104.278 L70.415,104.278 C72.065,104.278 73.714,104.695 74.955,105.934 L96.017,127.41 C100.146,131.539 105.103,133.604 110.47,133.604 L153.836,133.604 L190.181,96.845 L153.836,60.506 L132.774,60.506 L162.093,89.825 L122.86,89.825 C121.208,89.825 119.973,88.998 118.731,88.176 L97.258,66.701 Z M82.802,74.959 C84.454,74.959 85.693,75.786 86.934,77.025 L107.993,98.084 C112.125,102.216 116.665,104.278 122.86,104.278 L162.093,104.278 L147.64,118.735 L110.881,118.735 C108.818,118.735 107.583,118.321 106.341,117.085 L85.279,96.02 C81.15,91.888 76.61,89.825 70.415,89.825 L31.182,89.825 L45.635,74.959 L82.802,74.959 Z" id="Nslogo"></path>
        </g>
    </g>
</svg>