<?xml version="1.0" encoding="utf-8"?>
<!-- Generator: Adobe Illustrator 19.0.0, SVG Export Plug-In . SVG Version: 6.00 Build 0)  -->
<svg version="1.1" id="Laag_1" xmlns="http://www.w3.org/2000/svg" xmlns:xlink="http://www.w3.org/1999/xlink" x="0px" y="0px"
	 viewBox="-280 285 38 31" style="enable-background:new -280 285 38 31;" xml:space="preserve">
<style type="text/css">
	.st0{fill:#00891D;}
</style>
<title>Page 1</title>
<desc>Created with Sketch.</desc>
<g id="Verhaal">
	<g id="De-verwarde-man" transform="translate(-172.000000, -6330.000000)">
		<g id="Group-23" transform="translate(172.000000, 6327.000000)">
			<path id="Page-1" class="st0" d="M-279.4,318.3h6.6v-18h-6.6V318.3z M-242.9,301.8c0-1.7-1.5-3-3.3-3h-10.5l1.6-6.9
				c0-0.2,0.1-0.3,0.1-0.5c0-0.6-0.3-1.2-0.7-1.6l-1.8-1.6l-10.9,9.9c-0.6,0.5-1,1.3-1,2.1v15c0,1.7,1.5,3,3.3,3h14.9
				c1.4,0,2.6-0.8,3-1.8l5-10.6c0.1-0.3,0.2-0.7,0.2-1.1v-2.9l0,0L-242.9,301.8z"/>
		</g>
	</g>
</g>
</svg>
