<?xml version="1.0" encoding="utf-8"?>
<!-- Generator: Adobe Illustrator 19.0.0, SVG Export Plug-In . SVG Version: 6.00 Build 0)  -->
<svg version="1.1" id="Laag_1" xmlns="http://www.w3.org/2000/svg" xmlns:xlink="http://www.w3.org/1999/xlink" x="0px" y="0px"
	 viewBox="-281 285 37 31" style="enable-background:new -281 285 37 31;" xml:space="preserve">
<style type="text/css">
	.st0{fill:#9B0000;}
</style>
<title>Page 1</title>
<desc>Created with Sketch.</desc>
<g id="Verhaal">
	<g id="De-verwarde-man" transform="translate(-275.000000, -6333.000000)">
		<g id="Group-23" transform="translate(172.000000, 6327.000000)">
			<path id="Page-1" class="st0" d="M-154.7,291.2h-14.9c-1.4,0-2.6,0.8-3,1.8l-5,10.6c-0.1,0.3-0.2,0.7-0.2,1.1v2.9l0,0l0,0.1
				c0,1.7,1.5,3,3.3,3h10.5l-1.6,6.9c0,0.2-0.1,0.3-0.1,0.5c0,0.6,0.3,1.2,0.7,1.6l1.8,1.6l10.9-9.9c0.6-0.5,1-1.3,1-2.1v-15
				C-151.3,292.5-152.8,291.2-154.7,291.2z M-148,291.2v18h6.6v-18H-148z"/>
		</g>
	</g>
</g>
</svg>
