<?xml version="1.0" encoding="UTF-8"?>
<svg width="37px" height="31px" viewBox="0 0 37 31" version="1.1" xmlns="http://www.w3.org/2000/svg" xmlns:xlink="http://www.w3.org/1999/xlink">
    <!-- Generator: Sketch 52.6 (67491) - http://www.bohemiancoding.com/sketch -->
    <title>Page 1</title>
    <desc>Created with Sketch.</desc>
    <g id="Verhaal" stroke="none" stroke-width="1" fill="none" fill-rule="evenodd">
        <g id="De-verwarde-man" transform="translate(-275.000000, -6333.000000)" fill="#000000">
            <g id="Group-23" transform="translate(172.000000, 6327.000000)">
                <path d="M126.345009,6.18872753 L111.427509,6.18872753 C110.051784,6.18872753 108.874959,6.94732935 108.377709,8.02138936 L103.380345,18.6117712 C103.231171,18.957273 103.140009,19.3253076 103.140009,19.7083639 L103.140009,22.5850421 L103.156584,22.6000639 L103.140009,22.7127276 C103.140009,24.3726385 104.623471,25.7170912 106.455009,25.7170912 L116.922121,25.7170912 L115.339209,32.5820614 C115.306059,32.7322803 115.281196,32.8900086 115.281196,33.0552494 C115.281196,33.6786564 115.562971,34.2419715 116.010496,34.6475614 L117.775734,36.2323639 L128.690371,26.3404967 C129.287071,25.7922003 129.660009,25.0411094 129.660009,24.2149094 L129.660009,9.19309118 C129.660009,7.53318026 128.176546,6.18872753 126.345009,6.18872753 Z M132.975009,6.18872753 L132.975009,24.2149094 L139.605009,24.2149094 L139.605009,6.18872753 L132.975009,6.18872753 Z" id="Page-1"></path>
            </g>
        </g>
    </g>
</svg>