<?xml version="1.0" encoding="UTF-8"?>
<svg width="19px" height="21px" viewBox="0 0 19 21" version="1.1" xmlns="http://www.w3.org/2000/svg" xmlns:xlink="http://www.w3.org/1999/xlink">
    <!-- Generator: Sketch 53.2 (72643) - https://sketchapp.com -->
    <title>Profile</title>
    <desc>Created with Sketch.</desc>
    <g id="Profile" stroke="none" stroke-width="1" fill="none" fill-rule="evenodd">
        <g transform="translate(1.000000, 1.000000)" stroke="#003082" stroke-width="1.162">
            <path d="M8.56403872,8.8817842e-16 C11.0015065,8.8817842e-16 12.1280774,2.00092181 12.1280774,4.46898831 C12.1280774,7.10387132 10.7344158,8.93826876 8.56403872,8.93826876 C6.39366162,8.93826876 5,7.10387132 5,4.46898831 C5,2.00092181 6.12657093,8.8817842e-16 8.56403872,8.8817842e-16 L8.56403872,8.8817842e-16 Z" id="Stroke-5"></path>
            <path d="M4.67666394,11 C1.95361224,11 2.48689958e-14,13.1271298 2.48689958e-14,15.7512033 L2.48689958e-14,18.1284118 L16.6187402,18.1284118 L16.6187402,15.6287933 C16.6187402,13.0050119 14.4113767,11.1221179 11.6886282,11.1221179" id="Stroke-7"></path>
        </g>
    </g>
</svg>