<?xml version="1.0" encoding="UTF-8"?>
<svg width="38px" height="31px" viewBox="0 0 38 31" version="1.1" xmlns="http://www.w3.org/2000/svg" xmlns:xlink="http://www.w3.org/1999/xlink">
    <!-- Generator: Sketch 52.6 (67491) - http://www.bohemiancoding.com/sketch -->
    <title>Page 1</title>
    <desc>Created with Sketch.</desc>
    <g id="Verhaal" stroke="none" stroke-width="1" fill="none" fill-rule="evenodd">
        <g id="De-verwarde-man" transform="translate(-172.000000, -6330.000000)" fill="#000000">
            <g id="Group-23" transform="translate(172.000000, 6327.000000)">
                <path d="M0.630008609,33.2836367 L7.26000862,33.2836367 L7.26000862,15.2574548 L0.630008609,15.2574548 L0.630008609,33.2836367 Z M37.0950087,16.7596366 C37.0950087,15.0997257 35.6115462,13.755273 33.7800087,13.755273 L23.3128961,13.755273 L24.8958086,6.89030208 C24.9289586,6.7400839 24.9538211,6.58235481 24.9538211,6.41711481 C24.9538211,5.79370935 24.6720461,5.23039117 24.2245211,4.82480208 L22.4592836,3.24000026 L11.5446461,13.1318675 C10.9479461,13.6801639 10.5750086,14.4312548 10.5750086,15.2574548 L10.5750086,30.279273 C10.5750086,31.9391832 12.0584711,33.2836367 13.8900086,33.2836367 L28.8075087,33.2836367 C30.1832337,33.2836367 31.3600587,32.5250364 31.8573087,31.4509756 L36.8546712,20.860593 C37.0038462,20.5150912 37.0950087,20.1470566 37.0950087,19.7640003 L37.0950087,16.8873221 L37.0784337,16.8723003 L37.0950087,16.7596366 Z" id="Page-1"></path>
            </g>
        </g>
    </g>
</svg>