<?xml version="1.0" encoding="utf-8"?>
<!-- Generator: Adobe Illustrator 19.0.0, SVG Export Plug-In . SVG Version: 6.00 Build 0)  -->
<svg version="1.1" id="Laag_1" xmlns="http://www.w3.org/2000/svg" xmlns:xlink="http://www.w3.org/1999/xlink" x="0px" y="0px"
	 viewBox="-205 264 188 107.3" style="enable-background:new -205 264 188 107.3;" xml:space="preserve">
<style type="text/css">
	.st0{fill:#003082;}
	.st1{clip-path:url(#SVGID_2_);fill:#003082;}
	.st2{clip-path:url(#SVGID_4_);}
	.st3{fill:none;}
	.st4{font-family:'NSSans-Bold';}
	.st5{font-size:25px;}
</style>
<title>Nslogo</title>
<desc>Created with Sketch.</desc>
<g id="Page-1">
	<g id="Nederlandse_Spoorwegen" transform="translate(-3.000000, -60.000000)">
		<path id="Nslogo" class="st0" d="M-111.6,330.4c-3.9-3.9-8.7-5.9-13.8-5.9h-41l-35.1,34.7l35.1,35.1h19.7l-28-28h37.5
			c1.6,0,3.2,0.4,4.3,1.6l20.1,20.5c3.9,3.9,8.7,5.9,13.8,5.9h41.4l34.7-35.1l-34.7-34.7h-20.1l28,28h-37.5c-1.6,0-2.8-0.8-3.9-1.6
			L-111.6,330.4z M-125.4,338.3c1.6,0,2.8,0.8,3.9,2l20.1,20.1c3.9,3.9,8.3,5.9,14.2,5.9h37.5l-13.8,13.8h-35.1
			c-2,0-3.2-0.4-4.3-1.6l-20.1-20.1c-3.9-3.9-8.3-5.9-14.2-5.9h-37.5l13.8-14.2H-125.4z"/>
	</g>
</g>
<g>
	<defs>
		<path id="SVGID_1_" d="M41.2,315.8c1.4,1.4,3.4,2.2,5.7,2.2h16.8L78,304l-14.3-14h-8l11.4,11.2H51.8c-0.6,0-1.1-0.3-1.7-0.6
			l-8.3-8.4c-1.4-1.4-3.4-2.2-5.7-2.2H19.3L5,304l14.3,14h8l-11.4-11.2h15.4c0.6,0,1.1,0.3,1.7,0.6L41.2,315.8z M36.4,303.9
			c-1.4-1.4-3.5-2.3-5.8-2.3H15l5.8-5.7h14.7c0.6,0,1.2,0.3,1.7,0.6l8.4,8.5c1.4,1.4,3.5,2.3,5.8,2.3H67l-5.8,5.7H46.5
			c-0.6,0-1.2-0.3-1.7-0.6L36.4,303.9z"/>
	</defs>
	<clipPath id="SVGID_2_">
		<use xlink:href="#SVGID_1_"  style="overflow:visible;"/>
	</clipPath>
	<rect y="285" class="st1" width="83" height="38"/>
</g>
<g>
	<defs>
		<rect id="SVGID_3_" x="5" y="323" width="73" height="12"/>
	</defs>
	<clipPath id="SVGID_4_">
		<use xlink:href="#SVGID_3_"  style="overflow:visible;"/>
	</clipPath>
	<g class="st2">
		<text transform="matrix(1 0 0 1 5 333)" class="st0 st4" style="font-size:10px;">99 NS verhalen </text>
	</g>
</g>
<rect x="-203.8" y="342.3" class="st3" width="186.8" height="23.8"/>
<text transform="matrix(1 0 0 1 -203.833 361.2334)" class="st0 st4 st5">99 NS verhalen</text>
</svg>
